:SAMPLES-PER-SECOND 30
:FULLY-SPECIFIED
:DEGREES
131
root  34.99807223 36.45979513 -14.74533381 12.3990097 14.67258072 5.636064053
lowerback  -8.796520233 3.691800117 4.09032011
upperback  -4.343790054 4.27699995 -4.993456841
thorax  1.0898 1.889780045 -7.100200176
lowerneck  -15.14789963 -6.357450008 -2.605969906
upperneck  11.12639999 -9.347559929 7.648890018
head  6.358709812 -4.122920036 1.904209971
lclavicle  0 -4.497500157e-015 -2.743230041e-014
lhumerus  -42.90319824 29.12110138 66.52010345
lradius  -0.1076393723 -6.507048965e-006 24.99619865
lwrist  4.824992743e-007 -3.790274832e-007 -37.14870071
lhand  -4.405753553e-031 -36.72829819 -10.61279964
lfingers  90 7.125020027 -90
lthumb  94.72258146 -25.45578603 100.8797597
rclavicle  0 -4.497500157e-015 -2.743230041e-014
rhumerus  68.57830048 -12.41289997 -59.19660187
rradius  -5.16745672e-007 2.214343908e-008 36.87210083
rwrist  1.380293725e-006 2.528095422e-007 -151.6959991
rhand  -1.770363921e-031 4.220739841 -5.305339813
rfingers  -90 -7.125020027 -90
rthumb  -83.98096646 -10.44725776 -59.82281974
rfemur  -14.7853384 9.584928513 14.28497696
rtibia  -3.853319168 1.937792897 25.15987778
rfoot  -3.40542984 -13.5848074 -45.91495514
rtoes  4.042548124 19.60359004 -101.8950806
lfemur  -12.932971 -24.42882156 -19.20223808
ltibia  3.653514862 2.551765919 14.62641907
lfoot  0.8773570657 -29.95906639 28.37288666
ltoes  -8.556124848 -18.14553253 -115.7851788
132
root  34.99914154 36.45900216 -14.74657284 12.40514278 14.71792221 5.672081947
lowerback  -8.795840263 3.70468998 4.111820698
upperback  -4.353590012 4.291729927 -4.991139889
thorax  1.088140011 1.896409988 -7.113550186
lowerneck  -15.14159966 -6.397540092 -2.623699903
upperneck  11.19239998 -9.403570175 7.644090176
head  6.382190228 -4.149650097 1.898690104
lclavicle  0 -4.497500157e-015 -2.743230041e-014
lhumerus  -42.96030045 29.13750076 66.44360352
lradius  -0.1078594625 -6.507048965e-006 24.97520256
lwrist  4.824992743e-007 -3.790274832e-007 -37.21820068
lhand  -4.406338952e-031 -36.73849869 -10.71860027
lfingers  90 7.125020027 -90
lthumb  94.74953527 -25.55935368 100.900262
rclavicle  0 -4.497500157e-015 -2.743230041e-014
rhumerus  68.59609985 -12.51859951 -58.76530075
rradius  -5.16745672e-007 2.214343908e-008 36.6053009
rwrist  1.380293725e-006 2.528095422e-007 -152.1880035
rhand  -1.770614684e-031 4.329299927 -5.114290237
rfingers  -90 -7.125020027 -90
rthumb  -83.85449868 -10.61727343 -59.69842184
rfemur  -14.79774284 9.573106766 14.26855278
rtibia  -3.877086401 1.943048954 25.21395874
rfoot  -3.419703484 -13.54067326 -45.90296555
rtoes  4.025422522 19.6069808 -101.8440415
lfemur  -12.89727879 -24.49479103 -19.24206734
ltibia  3.674914122 2.554046392 14.57278442
lfoot  0.8968715072 -29.94662857 28.4178257
ltoes  -8.570316176 -18.13901091 -115.8307547
133
root  35.00223235 36.45784573 -14.74876404 12.40931606 14.76365852 5.688143253
lowerback  -8.801198959 3.703459978 4.098809719
upperback  -4.363180161 4.289989948 -4.996600151
thorax  1.075330019 1.894549966 -7.11259985
lowerneck  -15.16240025 -6.425220013 -2.642800093
upperneck  11.27900028 -9.448550224 7.661550045
head  6.417600155 -4.168439865 1.900539994
lclavicle  0 -4.497500157e-015 -2.743230041e-014
lhumerus  -43.02280045 29.18470001 66.35939789
lradius  -0.1080764234 -6.507048965e-006 24.94720078
lwrist  4.824992743e-007 -3.790274832e-007 -37.18870163
lhand  -4.408200441e-031 -36.77090073 -10.72990036
lfingers  90 7.125020027 -90
lthumb  94.76712942 -25.56932825 100.9359658
rclavicle  0 -4.497500157e-015 -2.743230041e-014
rhumerus  68.88559723 -12.59990025 -59.16820145
rradius  -5.16745672e-007 2.214343908e-008 36.15859985
rwrist  1.380293725e-006 2.528095422e-007 -151.8300018
rhand  -1.770409408e-031 4.240640163 -4.992919922
rfingers  -90 -7.125020027 -90
rthumb  -83.81582689 -10.71817173 -59.77392075
rfemur  -14.80596828 9.546938896 14.26105976
rtibia  -3.890302181 1.933996677 25.24231148
rfoot  -3.427944422 -13.53697681 -45.89443207
rtoes  4.030930171 19.60589197 -101.8604549
lfemur  -12.88249207 -24.49175835 -19.26145935
ltibia  3.679824114 2.575538158 14.55958557
lfoot  0.9083784223 -29.99874496 28.40139771
ltoes  -8.606805488 -18.12218031 -115.9480143
134
root  35.00541627 36.45659619 -14.7512466 12.41346455 14.79542255 5.706867218
lowerback  -8.810659409 3.715710163 4.105120182
upperback  -4.366740227 4.304969788 -5.011799812
thorax  1.080719948 1.901610017 -7.130479813
lowerneck  -15.16619968 -6.463669777 -2.646290064
upperneck  11.33899975 -9.510700226 7.683149815
head  6.442110062 -4.196000099 1.900080085
lclavicle  0 -4.497500157e-015 -2.743230041e-014
lhumerus  -43.06129837 29.20929909 66.28379822
lradius  -0.1082902551 -6.507048965e-006 24.9027977
lwrist  4.824992743e-007 -3.790274832e-007 -37.22340012
lhand  -0 -36.78480148 -10.59710026
lfingers  90 7.125020027 -90
lthumb  94.74572055 -25.43851919 100.9387824
rclavicle  0 -4.497500157e-015 -2.743230041e-014
rhumerus  69.1371994 -12.70890045 -59.45249939
rradius  -5.16745672e-007 2.214343908e-008 35.72570038
rwrist  1.380293725e-006 2.528095422e-007 -151.7299957
rhand  -1.770447676e-031 4.257309914 -5.060579777
rfingers  -90 -7.125020027 -90
rthumb  -83.84604502 -10.66047534 -59.76399057
rfemur  -14.81492805 9.543707848 14.2505064
rtibia  -3.904543877 1.941650748 25.27541351
rfoot  -3.441958189 -13.50412464 -45.90102005
rtoes  4.015721144 19.60889492 -101.8151324
lfemur  -12.86966324 -24.47848129 -19.28546906
ltibia  3.685744762 2.59659791 14.54343796
lfoot  0.9153262973 -30.04760742 28.3780365
ltoes  -8.611367557 -18.12006978 -115.9626821
135
root  35.00877741 36.45558094 -14.75391238 12.41766357 14.82226658 5.732457161
lowerback  -8.825631142 3.732709885 4.113110542
upperback  -4.372650146 4.325729847 -5.028019905
thorax  1.087759972 1.911399961 -7.149320126
lowerneck  -15.14579964 -6.509079933 -2.704750061
upperneck  11.38799953 -9.583849907 7.778439999
head  6.466350079 -4.227069855 1.930940032
lclavicle  0 -4.497500157e-015 -2.743230041e-014
lhumerus  -43.09540176 29.28790283 66.17340088
lradius  -0.1085009873 -6.507048965e-006 24.83269882
lwrist  4.824992743e-007 -3.790274832e-007 -37.30379868
lhand  -4.406287275e-031 -36.73759842 -10.57499981
lfingers  90 7.125020027 -90
lthumb  94.71903742 -25.41831517 100.8863553
rclavicle  0 -4.497500157e-015 -2.743230041e-014
rhumerus  69.28320313 -12.76280022 -59.57870102
rradius  -5.16745672e-007 2.214343908e-008 35.41579819
rwrist  1.380293725e-006 2.528095422e-007 -151.4440002
rhand  -1.770298135e-031 4.191790104 -5.394219875
rfingers  -90 -7.125020027 -90
rthumb  -84.03392151 -10.36903666 -59.85938344
rfemur  -14.81293774 9.48640728 14.2281971
rtibia  -3.915113211 1.874939203 25.29066658
rfoot  -3.488270521 -13.61824226 -45.94955826
rtoes  4.033239797 19.6054349 -101.8673381
lfemur  -12.88188457 -24.52254677 -19.31005669
ltibia  3.678472281 2.577397108 14.56342888
lfoot  0.9134262204 -30.02181244 28.36840248
ltoes  -8.59651324 -18.12693663 -115.9149292
